<mxfile host="app.diagrams.net" modified="2020-09-23T23:40:33.068Z" agent="5.0 (Windows NT 10.0; Win64; x64) AppleWebKit/537.36 (KHTML, like Gecko) Chrome/85.0.4183.121 Safari/537.36" etag="1OBc_knY0XOgPSL4r-F3" version="13.7.5" type="github">
  <diagram name="Page-1" id="f1b7ffb7-ca1e-a977-7cf5-a751b3c06c05">
    <mxGraphModel dx="3046" dy="5310" grid="1" gridSize="10" guides="1" tooltips="1" connect="1" arrows="1" fold="1" page="1" pageScale="1" pageWidth="826" pageHeight="1169" background="#ffffff" math="0" shadow="0">
      <root>
        <mxCell id="0" />
        <mxCell id="1" parent="0" />
        <mxCell id="6JME2ySkFKjzwElfkABd-64" value="login&lt;br&gt;register&lt;br&gt;&lt;br&gt;landowners&lt;br&gt;vs&lt;br&gt;rv owners&lt;br&gt;&lt;br&gt;dashboard&lt;br&gt;&lt;br&gt;&lt;br&gt;landowner dashboard&lt;br&gt;my reservations&lt;br&gt;cancel reservation&lt;br&gt;update reservation&lt;br&gt;&lt;br&gt;&lt;br&gt;my venues&lt;br&gt;update venue availability&lt;br&gt;crud venues&lt;br&gt;&lt;br&gt;rvowners dashboard&lt;br&gt;&lt;br&gt;my reservations&lt;br&gt;my favorite venues&lt;br&gt;search venues&lt;br&gt;create reservation&lt;br&gt;cancel reservation&lt;br&gt;update reservation" style="text;html=1;align=center;verticalAlign=middle;resizable=0;points=[];autosize=1;" vertex="1" parent="1">
          <mxGeometry x="-780" y="-2420" width="150" height="390" as="geometry" />
        </mxCell>
        <mxCell id="6JME2ySkFKjzwElfkABd-65" value="Text" style="text;html=1;align=center;verticalAlign=middle;resizable=0;points=[];autosize=1;" vertex="1" parent="1">
          <mxGeometry x="100" y="-350" width="40" height="20" as="geometry" />
        </mxCell>
        <mxCell id="6JME2ySkFKjzwElfkABd-75" value="Window Title" style="strokeWidth=1;shadow=0;dashed=0;align=center;html=1;shape=mxgraph.mockup.containers.window;align=left;verticalAlign=top;spacingLeft=8;strokeColor2=#008cff;strokeColor3=#c4c4c4;fontColor=#666666;mainText=;fontSize=17;labelBackgroundColor=none;" vertex="1" parent="1">
          <mxGeometry x="-290" y="-1561" width="900" height="600" as="geometry" />
        </mxCell>
        <mxCell id="6JME2ySkFKjzwElfkABd-76" value="&lt;font style=&quot;font-size: 36px&quot;&gt;Recreational Vehicles&lt;br&gt;rVenture&lt;/font&gt;" style="html=1;whiteSpace=wrap;shape=isoCube2;backgroundOutline=1;isoAngle=21.85534687162197;rotation=0;" vertex="1" parent="1">
          <mxGeometry x="90" y="-1544" width="560" height="530" as="geometry" />
        </mxCell>
        <mxCell id="6JME2ySkFKjzwElfkABd-77" value="&lt;font style=&quot;font-size: 42px&quot;&gt;welcome user&lt;/font&gt;" style="shape=ext;double=1;rounded=0;whiteSpace=wrap;html=1;" vertex="1" parent="1">
          <mxGeometry x="-260" y="-1501" width="370" height="90" as="geometry" />
        </mxCell>
        <mxCell id="6JME2ySkFKjzwElfkABd-78" value="&lt;font style=&quot;font-size: 32px&quot;&gt;upcoming&lt;/font&gt;" style="shape=ext;double=1;rounded=1;whiteSpace=wrap;html=1;" vertex="1" parent="1">
          <mxGeometry x="-220" y="-1286" width="270" height="50" as="geometry" />
        </mxCell>
        <mxCell id="6JME2ySkFKjzwElfkABd-79" value="&lt;font style=&quot;font-size: 32px&quot;&gt;new&lt;/font&gt;" style="shape=ext;double=1;rounded=1;whiteSpace=wrap;html=1;" vertex="1" parent="1">
          <mxGeometry x="-220" y="-1211" width="270" height="50" as="geometry" />
        </mxCell>
        <mxCell id="6JME2ySkFKjzwElfkABd-80" value="&lt;font style=&quot;font-size: 32px&quot;&gt;search&lt;/font&gt;" style="shape=ext;double=1;rounded=1;whiteSpace=wrap;html=1;" vertex="1" parent="1">
          <mxGeometry x="-220" y="-1131" width="270" height="50" as="geometry" />
        </mxCell>
        <mxCell id="6JME2ySkFKjzwElfkABd-85" value="" style="group;sketch=1;strokeColor=#1C77FF;" vertex="1" connectable="0" parent="1">
          <mxGeometry x="-340" y="-2353" width="900" height="600" as="geometry" />
        </mxCell>
        <mxCell id="6JME2ySkFKjzwElfkABd-67" value="Window Title" style="strokeWidth=1;shadow=0;dashed=0;align=center;html=1;shape=mxgraph.mockup.containers.window;align=left;verticalAlign=top;spacingLeft=8;strokeColor2=#008cff;strokeColor3=#c4c4c4;fontColor=#666666;mainText=;fontSize=17;labelBackgroundColor=none;" vertex="1" parent="6JME2ySkFKjzwElfkABd-85">
          <mxGeometry width="900" height="600" as="geometry" />
        </mxCell>
        <mxCell id="6JME2ySkFKjzwElfkABd-74" value="" style="rhombus;whiteSpace=wrap;html=1;strokeWidth=2;fillWeight=-1;hachureGap=8;fillStyle=cross-hatch;fillColor=#006600;sketch=1;rotation=0;" vertex="1" parent="6JME2ySkFKjzwElfkABd-85">
          <mxGeometry x="130" y="370" width="260" height="190" as="geometry" />
        </mxCell>
        <mxCell id="6JME2ySkFKjzwElfkABd-72" value="&lt;font style=&quot;font-size: 36px&quot;&gt;Recreational Vehicles&lt;br&gt;rVenture&lt;/font&gt;" style="html=1;whiteSpace=wrap;shape=isoCube2;backgroundOutline=1;isoAngle=21.85534687162197;rotation=0;" vertex="1" parent="6JME2ySkFKjzwElfkABd-85">
          <mxGeometry x="120" y="210" width="260" height="330" as="geometry" />
        </mxCell>
        <mxCell id="6JME2ySkFKjzwElfkABd-68" value="&lt;font style=&quot;font-size: 42px&quot;&gt;welcome user&lt;/font&gt;" style="shape=ext;double=1;rounded=0;whiteSpace=wrap;html=1;" vertex="1" parent="6JME2ySkFKjzwElfkABd-85">
          <mxGeometry x="50" y="90" width="370" height="90" as="geometry" />
        </mxCell>
        <mxCell id="6JME2ySkFKjzwElfkABd-69" value="&lt;font style=&quot;font-size: 32px&quot;&gt;myvenues&lt;/font&gt;" style="shape=ext;double=1;rounded=1;whiteSpace=wrap;html=1;strokeColor=#1C77FF;sketch=1;shadow=1;glass=0;" vertex="1" parent="6JME2ySkFKjzwElfkABd-85">
          <mxGeometry x="490" y="140" width="270" height="50" as="geometry" />
        </mxCell>
        <mxCell id="6JME2ySkFKjzwElfkABd-70" value="&lt;font style=&quot;font-size: 32px&quot;&gt;new&lt;/font&gt;" style="shape=ext;double=1;rounded=1;whiteSpace=wrap;html=1;" vertex="1" parent="6JME2ySkFKjzwElfkABd-85">
          <mxGeometry x="490" y="490" width="270" height="50" as="geometry" />
        </mxCell>
        <mxCell id="6JME2ySkFKjzwElfkABd-71" value="&lt;font style=&quot;font-size: 32px&quot;&gt;search&lt;/font&gt;" style="shape=ext;double=1;rounded=1;whiteSpace=wrap;html=1;" vertex="1" parent="6JME2ySkFKjzwElfkABd-85">
          <mxGeometry x="490" y="410" width="270" height="50" as="geometry" />
        </mxCell>
        <mxCell id="6JME2ySkFKjzwElfkABd-81" value="&lt;span style=&quot;color: rgba(0 , 0 , 0 , 0) ; font-family: monospace ; font-size: 0px&quot;&gt;%3CmxGraphModel%3E%3Croot%3E%3CmxCell%20id%3D%220%22%2F%3E%3CmxCell%20id%3D%221%22%20parent%3D%220%22%2F%3E%3CmxCell%20id%3D%222%22%20value%3D%22%22%20style%3D%22group%22%20vertex%3D%221%22%20connectable%3D%220%22%20parent%3D%221%22%3E%3CmxGeometry%20x%3D%22-340%22%20y%3D%22-3000%22%20width%3D%22900%22%20height%3D%22600%22%20as%3D%22geometry%22%2F%3E%3C%2FmxCell%3E%3CmxCell%20id%3D%223%22%20value%3D%22%22%20style%3D%22group%22%20vertex%3D%221%22%20connectable%3D%220%22%20parent%3D%222%22%3E%3CmxGeometry%20width%3D%22900%22%20height%3D%22600%22%20as%3D%22geometry%22%2F%3E%3C%2FmxCell%3E%3CmxCell%20id%3D%224%22%20value%3D%22Window%20Title%22%20style%3D%22strokeWidth%3D1%3Bshadow%3D0%3Bdashed%3D0%3Balign%3Dcenter%3Bhtml%3D1%3Bshape%3Dmxgraph.mockup.containers.window%3Balign%3Dleft%3BverticalAlign%3Dtop%3BspacingLeft%3D8%3BstrokeColor2%3D%23008cff%3BstrokeColor3%3D%23c4c4c4%3BfontColor%3D%23666666%3BmainText%3D%3BfontSize%3D17%3BlabelBackgroundColor%3Dnone%3B%22%20vertex%3D%221%22%20parent%3D%223%22%3E%3CmxGeometry%20width%3D%22900%22%20height%3D%22600%22%20as%3D%22geometry%22%2F%3E%3C%2FmxCell%3E%3CmxCell%20id%3D%225%22%20value%3D%22%22%20style%3D%22rhombus%3BwhiteSpace%3Dwrap%3Bhtml%3D1%3BstrokeWidth%3D2%3BfillWeight%3D-1%3BhachureGap%3D8%3BfillStyle%3Dcross-hatch%3BfillColor%3D%23006600%3Bsketch%3D1%3Brotation%3D0%3B%22%20vertex%3D%221%22%20parent%3D%223%22%3E%3CmxGeometry%20x%3D%22100%22%20y%3D%22380%22%20width%3D%22260%22%20height%3D%22190%22%20as%3D%22geometry%22%2F%3E%3C%2FmxCell%3E%3CmxCell%20id%3D%226%22%20value%3D%22%26lt%3Bfont%20style%3D%26quot%3Bfont-size%3A%2036px%26quot%3B%26gt%3BRecreational%20Vehicles%26lt%3Bbr%26gt%3BrVenture%26lt%3B%2Ffont%26gt%3B%22%20style%3D%22html%3D1%3BwhiteSpace%3Dwrap%3Bshape%3DisoCube2%3BbackgroundOutline%3D1%3BisoAngle%3D21.85534687162197%3Brotation%3D0%3B%22%20vertex%3D%221%22%20parent%3D%223%22%3E%3CmxGeometry%20x%3D%22105%22%20y%3D%22210%22%20width%3D%22260%22%20height%3D%22330%22%20as%3D%22geometry%22%2F%3E%3C%2FmxCell%3E%3CmxCell%20id%3D%227%22%20value%3D%22%26lt%3Bfont%20style%3D%26quot%3Bfont-size%3A%2042px%26quot%3B%26gt%3Bwelcome%20user%26lt%3B%2Ffont%26gt%3B%22%20style%3D%22shape%3Dext%3Bdouble%3D1%3Brounded%3D0%3BwhiteSpace%3Dwrap%3Bhtml%3D1%3B%22%20vertex%3D%221%22%20parent%3D%223%22%3E%3CmxGeometry%20x%3D%2250%22%20y%3D%2290%22%20width%3D%22370%22%20height%3D%2290%22%20as%3D%22geometry%22%2F%3E%3C%2FmxCell%3E%3CmxCell%20id%3D%228%22%20value%3D%22%26lt%3Bfont%20style%3D%26quot%3Bfont-size%3A%2032px%26quot%3B%26gt%3Bmyvenues%26lt%3B%2Ffont%26gt%3B%22%20style%3D%22shape%3Dext%3Bdouble%3D1%3Brounded%3D1%3BwhiteSpace%3Dwrap%3Bhtml%3D1%3B%22%20vertex%3D%221%22%20parent%3D%223%22%3E%3CmxGeometry%20x%3D%22483%22%20y%3D%22200%22%20width%3D%22270%22%20height%3D%2250%22%20as%3D%22geometry%22%2F%3E%3C%2FmxCell%3E%3CmxCell%20id%3D%229%22%20value%3D%22%26lt%3Bfont%20style%3D%26quot%3Bfont-size%3A%2032px%26quot%3B%26gt%3Bnew%26lt%3B%2Ffont%26gt%3B%22%20style%3D%22shape%3Dext%3Bdouble%3D1%3Brounded%3D1%3BwhiteSpace%3Dwrap%3Bhtml%3D1%3B%22%20vertex%3D%221%22%20parent%3D%223%22%3E%3CmxGeometry%20x%3D%22483%22%20y%3D%22400%22%20width%3D%22270%22%20height%3D%2250%22%20as%3D%22geometry%22%2F%3E%3C%2FmxCell%3E%3CmxCell%20id%3D%2210%22%20value%3D%22%26lt%3Bfont%20style%3D%26quot%3Bfont-size%3A%2032px%26quot%3B%26gt%3Bsearch%26lt%3B%2Ffont%26gt%3B%22%20style%3D%22shape%3Dext%3Bdouble%3D1%3Brounded%3D1%3BwhiteSpace%3Dwrap%3Bhtml%3D1%3B%22%20vertex%3D%221%22%20parent%3D%223%22%3E%3CmxGeometry%20x%3D%22483%22%20y%3D%22300%22%20width%3D%22270%22%20height%3D%2250%22%20as%3D%22geometry%22%2F%3E%3C%2FmxCell%3E%3C%2Froot%3E%3C%2FmxGraphModel%3E&lt;/span&gt;" style="rounded=1;whiteSpace=wrap;html=1;strokeWidth=2;fillWeight=4;hachureGap=8;hachureAngle=45;fillColor=#1ba1e2;sketch=1;" vertex="1" parent="6JME2ySkFKjzwElfkABd-85">
          <mxGeometry x="460" y="210" width="330" height="170" as="geometry" />
        </mxCell>
        <mxCell id="6JME2ySkFKjzwElfkABd-99" value="" style="group" vertex="1" connectable="0" parent="1">
          <mxGeometry x="-340" y="-3000" width="900" height="600" as="geometry" />
        </mxCell>
        <mxCell id="6JME2ySkFKjzwElfkABd-86" value="" style="group" vertex="1" connectable="0" parent="6JME2ySkFKjzwElfkABd-99">
          <mxGeometry width="900" height="600" as="geometry" />
        </mxCell>
        <mxCell id="6JME2ySkFKjzwElfkABd-87" value="Window Title" style="strokeWidth=1;shadow=0;dashed=0;align=center;html=1;shape=mxgraph.mockup.containers.window;align=left;verticalAlign=top;spacingLeft=8;strokeColor2=#008cff;strokeColor3=#c4c4c4;fontColor=#666666;mainText=;fontSize=17;labelBackgroundColor=none;" vertex="1" parent="6JME2ySkFKjzwElfkABd-86">
          <mxGeometry width="900" height="600" as="geometry" />
        </mxCell>
        <mxCell id="6JME2ySkFKjzwElfkABd-88" value="" style="rhombus;whiteSpace=wrap;html=1;strokeWidth=2;fillWeight=-1;hachureGap=8;fillStyle=cross-hatch;fillColor=#006600;sketch=1;rotation=0;" vertex="1" parent="6JME2ySkFKjzwElfkABd-86">
          <mxGeometry x="100" y="380" width="260" height="190" as="geometry" />
        </mxCell>
        <mxCell id="6JME2ySkFKjzwElfkABd-89" value="&lt;font style=&quot;font-size: 36px&quot;&gt;Recreational Vehicles&lt;br&gt;rVenture&lt;/font&gt;" style="html=1;whiteSpace=wrap;shape=isoCube2;backgroundOutline=1;isoAngle=21.85534687162197;rotation=0;" vertex="1" parent="6JME2ySkFKjzwElfkABd-86">
          <mxGeometry x="105" y="210" width="260" height="330" as="geometry" />
        </mxCell>
        <mxCell id="6JME2ySkFKjzwElfkABd-90" value="&lt;font style=&quot;font-size: 42px&quot;&gt;welcome user&lt;/font&gt;" style="shape=ext;double=1;rounded=0;whiteSpace=wrap;html=1;" vertex="1" parent="6JME2ySkFKjzwElfkABd-86">
          <mxGeometry x="50" y="90" width="370" height="90" as="geometry" />
        </mxCell>
        <mxCell id="6JME2ySkFKjzwElfkABd-91" value="&lt;font style=&quot;font-size: 32px&quot;&gt;myvenues&lt;/font&gt;" style="shape=ext;double=1;rounded=1;whiteSpace=wrap;html=1;" vertex="1" parent="6JME2ySkFKjzwElfkABd-86">
          <mxGeometry x="483" y="200" width="270" height="50" as="geometry" />
        </mxCell>
        <mxCell id="6JME2ySkFKjzwElfkABd-92" value="&lt;font style=&quot;font-size: 32px&quot;&gt;new&lt;/font&gt;" style="shape=ext;double=1;rounded=1;whiteSpace=wrap;html=1;" vertex="1" parent="6JME2ySkFKjzwElfkABd-86">
          <mxGeometry x="483" y="400" width="270" height="50" as="geometry" />
        </mxCell>
        <mxCell id="6JME2ySkFKjzwElfkABd-93" value="&lt;font style=&quot;font-size: 32px&quot;&gt;search&lt;/font&gt;" style="shape=ext;double=1;rounded=1;whiteSpace=wrap;html=1;" vertex="1" parent="6JME2ySkFKjzwElfkABd-86">
          <mxGeometry x="483" y="300" width="270" height="50" as="geometry" />
        </mxCell>
        <mxCell id="6JME2ySkFKjzwElfkABd-100" value="" style="group;shadow=1;strokeWidth=4;rounded=0;glass=0;sketch=1;perimeterSpacing=3;" vertex="1" connectable="0" parent="1">
          <mxGeometry x="630" y="-2353" width="900" height="600" as="geometry" />
        </mxCell>
        <mxCell id="6JME2ySkFKjzwElfkABd-101" value="" style="group" vertex="1" connectable="0" parent="6JME2ySkFKjzwElfkABd-100">
          <mxGeometry width="900" height="600" as="geometry" />
        </mxCell>
        <mxCell id="6JME2ySkFKjzwElfkABd-102" value="Window Title" style="strokeWidth=1;shadow=0;dashed=0;align=center;html=1;shape=mxgraph.mockup.containers.window;align=left;verticalAlign=top;spacingLeft=8;strokeColor2=#008cff;strokeColor3=#c4c4c4;fontColor=#666666;mainText=;fontSize=17;labelBackgroundColor=none;" vertex="1" parent="6JME2ySkFKjzwElfkABd-101">
          <mxGeometry width="900" height="600" as="geometry" />
        </mxCell>
        <mxCell id="6JME2ySkFKjzwElfkABd-137" value="&lt;span style=&quot;color: rgba(0 , 0 , 0 , 0) ; font-family: monospace ; font-size: 0px ; background-color: rgb(255 , 255 , 255)&quot;&gt;%3CmxGraphModel%3E%3Croot%3E%3CmxCell%20id%3D%220%22%2F%3E%3CmxCell%20id%3D%221%22%20parent%3D%220%22%2F%3E%3CmxCell%20id%3D%222%22%20value%3D%22%22%20style%3D%22group%22%20vertex%3D%221%22%20connectable%3D%220%22%20parent%3D%221%22%3E%3CmxGeometry%20x%3D%22-340%22%20y%3D%22-3000%22%20width%3D%22900%22%20height%3D%22600%22%20as%3D%22geometry%22%2F%3E%3C%2FmxCell%3E%3CmxCell%20id%3D%223%22%20value%3D%22%22%20style%3D%22group%22%20vertex%3D%221%22%20connectable%3D%220%22%20parent%3D%222%22%3E%3CmxGeometry%20width%3D%22900%22%20height%3D%22600%22%20as%3D%22geometry%22%2F%3E%3C%2FmxCell%3E%3CmxCell%20id%3D%224%22%20value%3D%22Window%20Title%22%20style%3D%22strokeWidth%3D1%3Bshadow%3D0%3Bdashed%3D0%3Balign%3Dcenter%3Bhtml%3D1%3Bshape%3Dmxgraph.mockup.containers.window%3Balign%3Dleft%3BverticalAlign%3Dtop%3BspacingLeft%3D8%3BstrokeColor2%3D%23008cff%3BstrokeColor3%3D%23c4c4c4%3BfontColor%3D%23666666%3BmainText%3D%3BfontSize%3D17%3BlabelBackgroundColor%3Dnone%3B%22%20vertex%3D%221%22%20parent%3D%223%22%3E%3CmxGeometry%20width%3D%22900%22%20height%3D%22600%22%20as%3D%22geometry%22%2F%3E%3C%2FmxCell%3E%3CmxCell%20id%3D%225%22%20value%3D%22%22%20style%3D%22rhombus%3BwhiteSpace%3Dwrap%3Bhtml%3D1%3BstrokeWidth%3D2%3BfillWeight%3D-1%3BhachureGap%3D8%3BfillStyle%3Dcross-hatch%3BfillColor%3D%23006600%3Bsketch%3D1%3Brotation%3D0%3B%22%20vertex%3D%221%22%20parent%3D%223%22%3E%3CmxGeometry%20x%3D%22100%22%20y%3D%22380%22%20width%3D%22260%22%20height%3D%22190%22%20as%3D%22geometry%22%2F%3E%3C%2FmxCell%3E%3CmxCell%20id%3D%226%22%20value%3D%22%26lt%3Bfont%20style%3D%26quot%3Bfont-size%3A%2036px%26quot%3B%26gt%3BRecreational%20Vehicles%26lt%3Bbr%26gt%3BrVenture%26lt%3B%2Ffont%26gt%3B%22%20style%3D%22html%3D1%3BwhiteSpace%3Dwrap%3Bshape%3DisoCube2%3BbackgroundOutline%3D1%3BisoAngle%3D21.85534687162197%3Brotation%3D0%3B%22%20vertex%3D%221%22%20parent%3D%223%22%3E%3CmxGeometry%20x%3D%22105%22%20y%3D%22210%22%20width%3D%22260%22%20height%3D%22330%22%20as%3D%22geometry%22%2F%3E%3C%2FmxCell%3E%3CmxCell%20id%3D%227%22%20value%3D%22%26lt%3Bfont%20style%3D%26quot%3Bfont-size%3A%2042px%26quot%3B%26gt%3Bwelcome%20user%26lt%3B%2Ffont%26gt%3B%22%20style%3D%22shape%3Dext%3Bdouble%3D1%3Brounded%3D0%3BwhiteSpace%3Dwrap%3Bhtml%3D1%3B%22%20vertex%3D%221%22%20parent%3D%223%22%3E%3CmxGeometry%20x%3D%2250%22%20y%3D%2290%22%20width%3D%22370%22%20height%3D%2290%22%20as%3D%22geometry%22%2F%3E%3C%2FmxCell%3E%3CmxCell%20id%3D%228%22%20value%3D%22%26lt%3Bfont%20style%3D%26quot%3Bfont-size%3A%2032px%26quot%3B%26gt%3Bmyvenues%26lt%3B%2Ffont%26gt%3B%22%20style%3D%22shape%3Dext%3Bdouble%3D1%3Brounded%3D1%3BwhiteSpace%3Dwrap%3Bhtml%3D1%3B%22%20vertex%3D%221%22%20parent%3D%223%22%3E%3CmxGeometry%20x%3D%22483%22%20y%3D%22200%22%20width%3D%22270%22%20height%3D%2250%22%20as%3D%22geometry%22%2F%3E%3C%2FmxCell%3E%3CmxCell%20id%3D%229%22%20value%3D%22%26lt%3Bfont%20style%3D%26quot%3Bfont-size%3A%2032px%26quot%3B%26gt%3Bnew%26lt%3B%2Ffont%26gt%3B%22%20style%3D%22shape%3Dext%3Bdouble%3D1%3Brounded%3D1%3BwhiteSpace%3Dwrap%3Bhtml%3D1%3B%22%20vertex%3D%221%22%20parent%3D%223%22%3E%3CmxGeometry%20x%3D%22483%22%20y%3D%22400%22%20width%3D%22270%22%20height%3D%2250%22%20as%3D%22geometry%22%2F%3E%3C%2FmxCell%3E%3CmxCell%20id%3D%2210%22%20value%3D%22%26lt%3Bfont%20style%3D%26quot%3Bfont-size%3A%2032px%26quot%3B%26gt%3Bsearch%26lt%3B%2Ffont%26gt%3B%22%20style%3D%22shape%3Dext%3Bdouble%3D1%3Brounded%3D1%3BwhiteSpace%3Dwrap%3Bhtml%3D1%3B%22%20vertex%3D%221%22%20parent%3D%223%22%3E%3CmxGeometry%20x%3D%22483%22%20y%3D%22300%22%20width%3D%22270%22%20height%3D%2250%22%20as%3D%22geometry%22%2F%3E%3C%2FmxCell%3E%3C%2Froot%3E%3C%2FmxGraphModel%3E&lt;/span&gt;" style="rounded=1;whiteSpace=wrap;html=1;strokeWidth=4;fillWeight=4;hachureGap=8;hachureAngle=45;fillColor=#1ba1e2;sketch=1;" vertex="1" parent="6JME2ySkFKjzwElfkABd-101">
          <mxGeometry x="430" y="300.75" width="377" height="231.5" as="geometry" />
        </mxCell>
        <mxCell id="6JME2ySkFKjzwElfkABd-103" value="" style="rhombus;whiteSpace=wrap;html=1;strokeWidth=2;fillWeight=-1;hachureGap=8;fillStyle=cross-hatch;fillColor=#006600;sketch=1;rotation=0;" vertex="1" parent="6JME2ySkFKjzwElfkABd-101">
          <mxGeometry x="100" y="380" width="260" height="190" as="geometry" />
        </mxCell>
        <mxCell id="6JME2ySkFKjzwElfkABd-104" value="&lt;font style=&quot;font-size: 36px&quot;&gt;Recreational Vehicles&lt;br&gt;rVenture&lt;/font&gt;" style="html=1;whiteSpace=wrap;shape=isoCube2;backgroundOutline=1;isoAngle=21.85534687162197;rotation=0;" vertex="1" parent="6JME2ySkFKjzwElfkABd-101">
          <mxGeometry x="105" y="210" width="260" height="330" as="geometry" />
        </mxCell>
        <mxCell id="6JME2ySkFKjzwElfkABd-105" value="&lt;font style=&quot;font-size: 42px&quot;&gt;welcome user&lt;/font&gt;" style="shape=ext;double=1;rounded=0;whiteSpace=wrap;html=1;" vertex="1" parent="6JME2ySkFKjzwElfkABd-101">
          <mxGeometry x="50" y="90" width="370" height="90" as="geometry" />
        </mxCell>
        <mxCell id="6JME2ySkFKjzwElfkABd-106" value="&lt;font style=&quot;font-size: 32px&quot;&gt;myvenues&lt;/font&gt;" style="shape=ext;double=1;rounded=1;whiteSpace=wrap;html=1;" vertex="1" parent="6JME2ySkFKjzwElfkABd-101">
          <mxGeometry x="483" y="90" width="270" height="50" as="geometry" />
        </mxCell>
        <mxCell id="6JME2ySkFKjzwElfkABd-107" value="&lt;font style=&quot;font-size: 32px&quot;&gt;new&lt;/font&gt;" style="shape=ext;double=1;rounded=1;whiteSpace=wrap;html=1;glass=1;sketch=1;shadow=1;strokeColor=#1C77FF;" vertex="1" parent="6JME2ySkFKjzwElfkABd-101">
          <mxGeometry x="483" y="233" width="270" height="50" as="geometry" />
        </mxCell>
        <mxCell id="6JME2ySkFKjzwElfkABd-108" value="&lt;font style=&quot;font-size: 32px&quot;&gt;search&lt;/font&gt;" style="shape=ext;double=1;rounded=1;whiteSpace=wrap;html=1;" vertex="1" parent="6JME2ySkFKjzwElfkABd-101">
          <mxGeometry x="483" y="160" width="270" height="50" as="geometry" />
        </mxCell>
        <mxCell id="6JME2ySkFKjzwElfkABd-136" value="" style="group;strokeWidth=5;shadow=1;fillColor=#ffffff;sketch=0;" vertex="1" connectable="0" parent="6JME2ySkFKjzwElfkABd-101">
          <mxGeometry x="493" y="323" width="250" height="187" as="geometry" />
        </mxCell>
        <mxCell id="6JME2ySkFKjzwElfkABd-125" value="From" style="strokeWidth=1;shadow=0;dashed=0;align=center;html=1;shape=mxgraph.mockup.forms.anchor;align=right;spacingRight=2;fontColor=#666666;labelBackgroundColor=#ffffff;" vertex="1" parent="6JME2ySkFKjzwElfkABd-136">
          <mxGeometry width="31.25" height="11.22" as="geometry" />
        </mxCell>
        <mxCell id="6JME2ySkFKjzwElfkABd-126" value="john@jgraph.com" style="strokeWidth=1;shadow=0;dashed=0;align=center;html=1;shape=mxgraph.mockup.forms.rrect;fillColor=#ffffff;rSize=0;fontColor=#666666;align=left;spacingLeft=3;strokeColor=#999999;" vertex="1" parent="6JME2ySkFKjzwElfkABd-136">
          <mxGeometry x="31.25" width="218.75" height="11.22" as="geometry" />
        </mxCell>
        <mxCell id="6JME2ySkFKjzwElfkABd-127" value="Subject" style="strokeWidth=1;shadow=0;dashed=0;align=center;html=1;shape=mxgraph.mockup.forms.anchor;align=right;spacingRight=2;fontColor=#666666;labelBackgroundColor=#ffffff;" vertex="1" parent="6JME2ySkFKjzwElfkABd-136">
          <mxGeometry y="21.816666666666666" width="31.25" height="11.22" as="geometry" />
        </mxCell>
        <mxCell id="6JME2ySkFKjzwElfkABd-128" value="Greeting" style="strokeWidth=1;shadow=0;dashed=0;align=center;html=1;shape=mxgraph.mockup.forms.rrect;fillColor=#ffffff;rSize=0;fontColor=#666666;align=left;spacingLeft=3;strokeColor=#999999;" vertex="1" parent="6JME2ySkFKjzwElfkABd-136">
          <mxGeometry x="31.25" y="21.816666666666666" width="218.75" height="11.22" as="geometry" />
        </mxCell>
        <mxCell id="6JME2ySkFKjzwElfkABd-129" value="To" style="strokeWidth=1;shadow=0;dashed=0;align=center;html=1;shape=mxgraph.mockup.forms.anchor;align=right;spacingRight=2;fontColor=#666666;labelBackgroundColor=#ffffff;" vertex="1" parent="6JME2ySkFKjzwElfkABd-136">
          <mxGeometry y="43.63333333333333" width="31.25" height="11.22" as="geometry" />
        </mxCell>
        <mxCell id="6JME2ySkFKjzwElfkABd-130" value="fred@jgraph.com" style="strokeWidth=1;shadow=0;dashed=0;align=center;html=1;shape=mxgraph.mockup.forms.rrect;fillColor=#ffffff;rSize=0;fontColor=#666666;align=left;spacingLeft=3;strokeColor=#999999;" vertex="1" parent="6JME2ySkFKjzwElfkABd-136">
          <mxGeometry x="31.25" y="43.63333333333333" width="218.75" height="11.22" as="geometry" />
        </mxCell>
        <mxCell id="6JME2ySkFKjzwElfkABd-131" value="CC" style="strokeWidth=1;shadow=0;dashed=0;align=center;html=1;shape=mxgraph.mockup.forms.anchor;align=right;spacingRight=2;fontColor=#666666;labelBackgroundColor=#ffffff;" vertex="1" parent="6JME2ySkFKjzwElfkABd-136">
          <mxGeometry y="65.45" width="31.25" height="11.22" as="geometry" />
        </mxCell>
        <mxCell id="6JME2ySkFKjzwElfkABd-132" value="" style="strokeWidth=1;shadow=0;dashed=0;align=center;html=1;shape=mxgraph.mockup.forms.rrect;fillColor=#ffffff;rSize=0;fontColor=#666666;align=left;spacingLeft=3;strokeColor=#999999;" vertex="1" parent="6JME2ySkFKjzwElfkABd-136">
          <mxGeometry x="31.25" y="65.45" width="218.75" height="11.22" as="geometry" />
        </mxCell>
        <mxCell id="6JME2ySkFKjzwElfkABd-133" value="&lt;span style=&quot;&quot;&gt;BCC&lt;/span&gt;" style="strokeWidth=1;shadow=0;dashed=0;align=center;html=1;shape=mxgraph.mockup.forms.anchor;align=right;spacingRight=2;strokeColor=#1C77FF;labelBackgroundColor=#ffffff;labelBorderColor=none;" vertex="1" parent="6JME2ySkFKjzwElfkABd-136">
          <mxGeometry y="87.26666666666667" width="31.25" height="11.22" as="geometry" />
        </mxCell>
        <mxCell id="6JME2ySkFKjzwElfkABd-134" value="" style="strokeWidth=1;shadow=0;dashed=0;align=center;html=1;shape=mxgraph.mockup.forms.rrect;fillColor=#ffffff;rSize=0;fontColor=#666666;align=left;spacingLeft=3;strokeColor=#999999;" vertex="1" parent="6JME2ySkFKjzwElfkABd-136">
          <mxGeometry x="31.25" y="87.26666666666667" width="218.75" height="11.22" as="geometry" />
        </mxCell>
        <mxCell id="6JME2ySkFKjzwElfkABd-135" value="" style="strokeWidth=1;shadow=0;dashed=0;align=center;html=1;shape=mxgraph.mockup.forms.rrect;fillColor=#ffffff;rSize=0;fontColor=#666666;align=left;spacingLeft=3;verticalAlign=top;whiteSpace=wrap;strokeColor=none;" vertex="1" parent="6JME2ySkFKjzwElfkABd-136">
          <mxGeometry y="109.08333333333333" width="250" height="77.91666666666667" as="geometry" />
        </mxCell>
        <mxCell id="6JME2ySkFKjzwElfkABd-109" value="" style="group;rounded=1;sketch=1;shadow=1;" vertex="1" connectable="0" parent="1">
          <mxGeometry x="1690" y="-2353" width="900" height="600" as="geometry" />
        </mxCell>
        <mxCell id="6JME2ySkFKjzwElfkABd-110" value="" style="group;sketch=1;shadow=1;rounded=1;" vertex="1" connectable="0" parent="6JME2ySkFKjzwElfkABd-109">
          <mxGeometry width="900" height="600" as="geometry" />
        </mxCell>
        <mxCell id="6JME2ySkFKjzwElfkABd-111" value="Window Title" style="strokeWidth=1;shadow=0;dashed=0;align=center;html=1;shape=mxgraph.mockup.containers.window;align=left;verticalAlign=top;spacingLeft=8;strokeColor2=#008cff;strokeColor3=#c4c4c4;fontColor=#666666;mainText=;fontSize=17;labelBackgroundColor=none;" vertex="1" parent="6JME2ySkFKjzwElfkABd-110">
          <mxGeometry width="900" height="600" as="geometry" />
        </mxCell>
        <mxCell id="6JME2ySkFKjzwElfkABd-112" value="" style="rhombus;whiteSpace=wrap;html=1;strokeWidth=2;fillWeight=-1;hachureGap=8;fillStyle=cross-hatch;fillColor=#006600;sketch=1;rotation=0;" vertex="1" parent="6JME2ySkFKjzwElfkABd-110">
          <mxGeometry x="100" y="380" width="260" height="190" as="geometry" />
        </mxCell>
        <mxCell id="6JME2ySkFKjzwElfkABd-113" value="&lt;font style=&quot;font-size: 36px&quot;&gt;Recreational Vehicles&lt;br&gt;rVenture&lt;/font&gt;" style="html=1;whiteSpace=wrap;shape=isoCube2;backgroundOutline=1;isoAngle=21.85534687162197;rotation=0;" vertex="1" parent="6JME2ySkFKjzwElfkABd-110">
          <mxGeometry x="105" y="210" width="260" height="330" as="geometry" />
        </mxCell>
        <mxCell id="6JME2ySkFKjzwElfkABd-114" value="&lt;font style=&quot;font-size: 42px&quot;&gt;welcome user&lt;/font&gt;" style="shape=ext;double=1;rounded=0;whiteSpace=wrap;html=1;" vertex="1" parent="6JME2ySkFKjzwElfkABd-110">
          <mxGeometry x="50" y="90" width="370" height="90" as="geometry" />
        </mxCell>
        <mxCell id="6JME2ySkFKjzwElfkABd-115" value="&lt;font style=&quot;font-size: 32px&quot;&gt;myvenues&lt;/font&gt;" style="shape=ext;double=1;rounded=1;whiteSpace=wrap;html=1;" vertex="1" parent="6JME2ySkFKjzwElfkABd-110">
          <mxGeometry x="483" y="90" width="270" height="50" as="geometry" />
        </mxCell>
        <mxCell id="6JME2ySkFKjzwElfkABd-116" value="&lt;font style=&quot;font-size: 32px&quot;&gt;new&lt;/font&gt;" style="shape=ext;double=1;rounded=1;whiteSpace=wrap;html=1;" vertex="1" parent="6JME2ySkFKjzwElfkABd-110">
          <mxGeometry x="483" y="490" width="270" height="50" as="geometry" />
        </mxCell>
        <mxCell id="6JME2ySkFKjzwElfkABd-117" value="&lt;font style=&quot;font-size: 32px&quot;&gt;search&lt;/font&gt;" style="shape=ext;double=1;rounded=1;whiteSpace=wrap;html=1;strokeColor=#1C77FF;shadow=1;sketch=1;" vertex="1" parent="6JME2ySkFKjzwElfkABd-110">
          <mxGeometry x="483" y="153" width="270" height="47" as="geometry" />
        </mxCell>
        <mxCell id="6JME2ySkFKjzwElfkABd-138" value="&lt;span style=&quot;color: rgba(0 , 0 , 0 , 0) ; font-family: monospace ; font-size: 0px ; background-color: rgb(255 , 255 , 255)&quot;&gt;%3CmxGraphModel%3E%3Croot%3E%3CmxCell%20id%3D%220%22%2F%3E%3CmxCell%20id%3D%221%22%20parent%3D%220%22%2F%3E%3CmxCell%20id%3D%222%22%20value%3D%22%22%20style%3D%22group%22%20vertex%3D%221%22%20connectable%3D%220%22%20parent%3D%221%22%3E%3CmxGeometry%20x%3D%22-340%22%20y%3D%22-3000%22%20width%3D%22900%22%20height%3D%22600%22%20as%3D%22geometry%22%2F%3E%3C%2FmxCell%3E%3CmxCell%20id%3D%223%22%20value%3D%22%22%20style%3D%22group%22%20vertex%3D%221%22%20connectable%3D%220%22%20parent%3D%222%22%3E%3CmxGeometry%20width%3D%22900%22%20height%3D%22600%22%20as%3D%22geometry%22%2F%3E%3C%2FmxCell%3E%3CmxCell%20id%3D%224%22%20value%3D%22Window%20Title%22%20style%3D%22strokeWidth%3D1%3Bshadow%3D0%3Bdashed%3D0%3Balign%3Dcenter%3Bhtml%3D1%3Bshape%3Dmxgraph.mockup.containers.window%3Balign%3Dleft%3BverticalAlign%3Dtop%3BspacingLeft%3D8%3BstrokeColor2%3D%23008cff%3BstrokeColor3%3D%23c4c4c4%3BfontColor%3D%23666666%3BmainText%3D%3BfontSize%3D17%3BlabelBackgroundColor%3Dnone%3B%22%20vertex%3D%221%22%20parent%3D%223%22%3E%3CmxGeometry%20width%3D%22900%22%20height%3D%22600%22%20as%3D%22geometry%22%2F%3E%3C%2FmxCell%3E%3CmxCell%20id%3D%225%22%20value%3D%22%22%20style%3D%22rhombus%3BwhiteSpace%3Dwrap%3Bhtml%3D1%3BstrokeWidth%3D2%3BfillWeight%3D-1%3BhachureGap%3D8%3BfillStyle%3Dcross-hatch%3BfillColor%3D%23006600%3Bsketch%3D1%3Brotation%3D0%3B%22%20vertex%3D%221%22%20parent%3D%223%22%3E%3CmxGeometry%20x%3D%22100%22%20y%3D%22380%22%20width%3D%22260%22%20height%3D%22190%22%20as%3D%22geometry%22%2F%3E%3C%2FmxCell%3E%3CmxCell%20id%3D%226%22%20value%3D%22%26lt%3Bfont%20style%3D%26quot%3Bfont-size%3A%2036px%26quot%3B%26gt%3BRecreational%20Vehicles%26lt%3Bbr%26gt%3BrVenture%26lt%3B%2Ffont%26gt%3B%22%20style%3D%22html%3D1%3BwhiteSpace%3Dwrap%3Bshape%3DisoCube2%3BbackgroundOutline%3D1%3BisoAngle%3D21.85534687162197%3Brotation%3D0%3B%22%20vertex%3D%221%22%20parent%3D%223%22%3E%3CmxGeometry%20x%3D%22105%22%20y%3D%22210%22%20width%3D%22260%22%20height%3D%22330%22%20as%3D%22geometry%22%2F%3E%3C%2FmxCell%3E%3CmxCell%20id%3D%227%22%20value%3D%22%26lt%3Bfont%20style%3D%26quot%3Bfont-size%3A%2042px%26quot%3B%26gt%3Bwelcome%20user%26lt%3B%2Ffont%26gt%3B%22%20style%3D%22shape%3Dext%3Bdouble%3D1%3Brounded%3D0%3BwhiteSpace%3Dwrap%3Bhtml%3D1%3B%22%20vertex%3D%221%22%20parent%3D%223%22%3E%3CmxGeometry%20x%3D%2250%22%20y%3D%2290%22%20width%3D%22370%22%20height%3D%2290%22%20as%3D%22geometry%22%2F%3E%3C%2FmxCell%3E%3CmxCell%20id%3D%228%22%20value%3D%22%26lt%3Bfont%20style%3D%26quot%3Bfont-size%3A%2032px%26quot%3B%26gt%3Bmyvenues%26lt%3B%2Ffont%26gt%3B%22%20style%3D%22shape%3Dext%3Bdouble%3D1%3Brounded%3D1%3BwhiteSpace%3Dwrap%3Bhtml%3D1%3B%22%20vertex%3D%221%22%20parent%3D%223%22%3E%3CmxGeometry%20x%3D%22483%22%20y%3D%22200%22%20width%3D%22270%22%20height%3D%2250%22%20as%3D%22geometry%22%2F%3E%3C%2FmxCell%3E%3CmxCell%20id%3D%229%22%20value%3D%22%26lt%3Bfont%20style%3D%26quot%3Bfont-size%3A%2032px%26quot%3B%26gt%3Bnew%26lt%3B%2Ffont%26gt%3B%22%20style%3D%22shape%3Dext%3Bdouble%3D1%3Brounded%3D1%3BwhiteSpace%3Dwrap%3Bhtml%3D1%3B%22%20vertex%3D%221%22%20parent%3D%223%22%3E%3CmxGeometry%20x%3D%22483%22%20y%3D%22400%22%20width%3D%22270%22%20height%3D%2250%22%20as%3D%22geometry%22%2F%3E%3C%2FmxCell%3E%3CmxCell%20id%3D%2210%22%20value%3D%22%26lt%3Bfont%20style%3D%26quot%3Bfont-size%3A%2032px%26quot%3B%26gt%3Bsearch%26lt%3B%2Ffont%26gt%3B%22%20style%3D%22shape%3Dext%3Bdouble%3D1%3Brounded%3D1%3BwhiteSpace%3Dwrap%3Bhtml%3D1%3B%22%20vertex%3D%221%22%20parent%3D%223%22%3E%3CmxGeometry%20x%3D%22483%22%20y%3D%22300%22%20width%3D%22270%22%20height%3D%2250%22%20as%3D%22geometry%22%2F%3E%3C%2FmxCell%3E%3C%2Froot%3E%3C%2FmxGraphModel%3E&lt;/span&gt;" style="rounded=1;whiteSpace=wrap;html=1;strokeWidth=4;fillWeight=4;hachureGap=8;hachureAngle=45;fillColor=#1ba1e2;sketch=1;shadow=1;" vertex="1" parent="6JME2ySkFKjzwElfkABd-110">
          <mxGeometry x="429.5" y="220" width="377" height="250" as="geometry" />
        </mxCell>
        <mxCell id="6JME2ySkFKjzwElfkABd-139" value="&lt;table border=&quot;1&quot; width=&quot;100%&quot; height=&quot;100%&quot; style=&quot;width:100%;height:100%;border-collapse:collapse;&quot;&gt;&lt;tr&gt;&lt;td align=&quot;center&quot;&gt;Value 1&lt;/td&gt;&lt;td align=&quot;center&quot;&gt;Value 2&lt;/td&gt;&lt;td align=&quot;center&quot;&gt;Value 3&lt;/td&gt;&lt;/tr&gt;&lt;tr&gt;&lt;td align=&quot;center&quot;&gt;Value 4&lt;/td&gt;&lt;td align=&quot;center&quot;&gt;Value 5&lt;/td&gt;&lt;td align=&quot;center&quot;&gt;Value 6&lt;/td&gt;&lt;/tr&gt;&lt;tr&gt;&lt;td align=&quot;center&quot;&gt;Value 7&lt;/td&gt;&lt;td align=&quot;center&quot;&gt;Value 8&lt;/td&gt;&lt;td align=&quot;center&quot;&gt;Value 9&lt;/td&gt;&lt;/tr&gt;&lt;/table&gt;" style="text;html=1;strokeColor=none;fillColor=none;overflow=fill;rounded=0;shadow=1;glass=0;labelBackgroundColor=#ffffff;sketch=1;fontColor=#000000;" vertex="1" parent="6JME2ySkFKjzwElfkABd-110">
          <mxGeometry x="452" y="237.5" width="332" height="215" as="geometry" />
        </mxCell>
        <mxCell id="6JME2ySkFKjzwElfkABd-121" style="edgeStyle=orthogonalEdgeStyle;rounded=0;orthogonalLoop=1;jettySize=auto;html=1;exitX=0;exitY=0.25;exitDx=0;exitDy=0;" edge="1" parent="1" source="6JME2ySkFKjzwElfkABd-91" target="6JME2ySkFKjzwElfkABd-67">
          <mxGeometry relative="1" as="geometry" />
        </mxCell>
        <mxCell id="6JME2ySkFKjzwElfkABd-122" style="edgeStyle=orthogonalEdgeStyle;rounded=0;orthogonalLoop=1;jettySize=auto;html=1;exitX=1;exitY=0.25;exitDx=0;exitDy=0;" edge="1" parent="1" source="6JME2ySkFKjzwElfkABd-92">
          <mxGeometry relative="1" as="geometry">
            <mxPoint x="820" y="-2410" as="targetPoint" />
          </mxGeometry>
        </mxCell>
        <mxCell id="6JME2ySkFKjzwElfkABd-123" style="edgeStyle=orthogonalEdgeStyle;rounded=0;orthogonalLoop=1;jettySize=auto;html=1;exitX=1;exitY=0.5;exitDx=0;exitDy=0;" edge="1" parent="1" source="6JME2ySkFKjzwElfkABd-93">
          <mxGeometry relative="1" as="geometry">
            <mxPoint x="2140" y="-2380" as="targetPoint" />
          </mxGeometry>
        </mxCell>
      </root>
    </mxGraphModel>
  </diagram>
</mxfile>
